<?xml version="1.0" encoding="UTF-8"?>
<svg id="Layer_1" xmlns="http://www.w3.org/2000/svg" version="1.1" viewBox="0 0 2725 900">
  <!-- Generator: Adobe Illustrator 29.3.0, SVG Export Plug-In . SVG Version: 2.1.0 Build 146)  -->
  <defs>
    <style>
      .st0 {
        fill: #fff;
      }
    </style>
  </defs>
  <rect width="2725" height="900"/>
  <path class="st0" d="M2527.59,113.17H197.41c-53.82,0-97.85,44.03-97.85,97.85v477.96c0,53.82,44.03,97.85,97.85,97.85h2330.19c53.82,0,97.85-44.03,97.85-97.85V211.02c0-53.82-44.03-97.85-97.85-97.85ZM827.84,265.25c15.85,0,28.69,12.85,28.69,28.69s-12.85,28.69-28.69,28.69-28.69-12.85-28.69-28.69,12.85-28.69,28.69-28.69ZM736.62,281.64c15.85,0,28.69,12.85,28.69,28.69s-12.85,28.69-28.69,28.69-28.69-12.85-28.69-28.69,12.85-28.69,28.69-28.69ZM551.19,601.96l-.43-196.75-97.52,162.82h-24.59l-97.53-160.28v194.2h-52.58v-296.81h45.37l117.87,196.74,115.76-196.74h45.37l.42,296.81h-52.15ZM867.93,601.96h-50.04v-27.56c-6.51,9.9-15.76,17.46-27.77,22.68-12.02,5.23-26.5,7.85-43.46,7.85s-31.8-2.9-44.52-8.69c-12.72-5.79-22.55-13.85-29.47-24.17-6.93-10.31-10.39-21.98-10.39-34.98,0-20.35,7.56-36.68,22.68-48.97,15.12-12.3,38.94-18.44,71.45-18.44h58.51v-3.39c0-15.83-4.74-27.98-14.21-36.47-9.47-8.48-23.53-12.72-42.19-12.72-12.72,0-25.23,1.98-37.52,5.93-12.3,3.96-22.69,9.47-31.17,16.54l-20.78-38.59c11.87-9.04,26.14-15.97,42.82-20.78,16.68-4.8,34.34-7.21,53-7.21,33.35,0,58.87,7.99,76.53,23.95,17.67,15.97,26.5,40.07,26.5,72.29v132.72ZM1049.19,601.11c-8.91,2.54-18.31,3.82-28.2,3.82-24.88,0-44.1-6.5-57.66-19.5-13.57-13-20.35-31.94-20.35-56.82v-108.97h-37.32v-42.4h37.32v-51.73h53v51.73h60.63v42.4h-60.63v107.7c0,11.02,2.68,19.44,8.06,25.23,5.37,5.79,13.14,8.69,23.32,8.69,11.87,0,21.76-3.11,29.68-9.33l14.84,37.74c-6.22,5.09-13.78,8.91-22.69,11.45ZM1161.98,540.27c12.86,12.86,29.33,19.29,49.4,19.29,11.59,0,22.26-2.61,32.01-7.85,9.75-5.23,17.87-13.07,24.38-23.53l40.71,23.74c-8.77,16.96-21.56,30.04-38.37,39.22-16.82,9.19-36.26,13.78-58.3,13.78-23.47,0-44.52-4.94-63.18-14.84-18.65-9.89-33.22-23.67-43.67-41.34-10.46-17.66-15.69-37.66-15.69-60s5.23-42.26,15.69-59.79c10.46-17.53,24.94-31.23,43.46-41.13,18.51-9.89,39.65-14.84,63.39-14.84,22.32,0,41.9,4.52,58.73,13.57,16.82,9.05,29.47,22.05,37.95,39.01l-40.71,23.75c-6.51-10.46-14.63-18.3-24.38-23.54-9.75-5.23-20.42-7.84-32.01-7.84-19.79,0-36.19,6.43-49.19,19.29-13.01,12.86-19.5,30.04-19.5,51.52s6.43,38.66,19.29,51.52ZM1575.19,601.96h-53v-122.96c0-19.78-4.67-34.7-14-44.73-9.33-10.03-22.62-15.05-39.86-15.05-19.5,0-34.92,5.87-46.22,17.6-11.31,11.73-16.96,28.62-16.96,50.67v114.48h-53v-314.62h53v114.48c8.76-9.33,19.57-16.47,32.43-21.41,12.86-4.94,27.2-7.42,43.04-7.42,28.55,0,51.44,8.34,68.69,25.02,17.24,16.68,25.87,41.42,25.87,74.21v129.75ZM2588.96,673.19c0,42.49-34.76,77.25-77.25,77.25h-684.75c-42.49,0-77.25-34.76-77.25-77.25V226.81c0-42.49,34.76-77.25,77.25-77.25h684.75c42.49,0,77.25,34.76,77.25,77.25v446.38ZM760.23,504.86h54.7v26.29c-4.24,11.31-11.52,20-21.84,26.08-10.32,6.08-22.12,9.12-35.41,9.12s-24.17-2.82-31.8-8.48c-7.63-5.65-11.45-13.29-11.45-22.9,0-20.07,15.26-30.1,45.8-30.1ZM2151.52,299.68h22.76l-134,300.64h-21.9l-134-300.64h24.05l121.55,272.3,121.55-272.3ZM2279.51,334.89c20.61-11.45,43.52-17.18,68.72-17.18,37.5,0,68.29,11.89,92.34,35.65l13.74-14.18c-12.88-13.74-28.5-24.11-46.81-31.14-18.33-7.01-38.37-10.52-60.13-10.52-29.5,0-56.05,6.59-79.67,19.75-23.62,13.17-42.24,31.35-55.83,54.55-13.6,23.19-20.4,49.25-20.4,78.16s6.8,54.97,20.4,78.17c13.6,23.19,32.21,41.38,55.83,54.55,23.62,13.17,50.18,19.75,79.67,19.75,21.47,0,41.45-3.58,59.91-10.74,18.47-7.15,34.14-17.61,47.03-31.35l-13.74-14.17c-24.34,24.05-55.12,36.07-92.34,36.07-25.2,0-48.1-5.72-68.72-17.18-20.61-11.45-36.8-27.27-48.53-47.46-11.74-20.19-17.61-42.74-17.61-67.65s5.87-47.46,17.61-67.64c11.73-20.19,27.92-36,48.53-47.46Z"/>
</svg>